<?xml version="1.0" encoding="UTF-8"?>
<svg width="86px" height="29px" viewBox="0 0 86 29" version="1.1" xmlns="http://www.w3.org/2000/svg" xmlns:xlink="http://www.w3.org/1999/xlink">
    <title>Gnarl</title>
    <defs></defs>
    <g id="Gnarl" stroke="none" stroke-width="1" fill="none" fill-rule="evenodd">
        <path d="M24.9082031,16.8671875 C24.9082031,24.1220703 20.6220703,28.4453125 13.3671875,28.4453125 C5.70410156,28.4453125 0.879882812,23.0830078 0.879882812,14.4921875 C0.879882812,6.04980469 5.68554688,0.780273438 13.3115234,0.780273438 C19.2675781,0.780273438 23.7763672,4.30566406 24.7041016,9.64941406 L20.4365234,9.64941406 C19.4345703,6.328125 16.8183594,4.41699219 13.3300781,4.41699219 C8.20898438,4.41699219 5.12890625,8.16503906 5.12890625,14.4550781 C5.12890625,20.8564453 8.30175781,24.8085938 13.4042969,24.8085938 C17.7460937,24.8085938 20.7519531,22.0253906 20.8076172,17.9619141 L20.8076172,17.4980469 L13.8867187,17.4980469 L13.8867187,14.1396484 L24.9082031,14.1396484 L24.9082031,16.8671875 Z M28.4892578,28 L28.4892578,8.48046875 L32.3115234,8.48046875 L32.3115234,11.8017578 L32.4042969,11.8017578 C33.5732422,9.46386719 35.5400391,8.2578125 38.5458984,8.2578125 C42.8505859,8.2578125 45.3183594,11.0224609 45.3183594,15.4941406 L45.3183594,28 L41.2919922,28 L41.2919922,16.2734375 C41.2919922,13.3417969 39.9375,11.7089844 37.1171875,11.7089844 C34.2412109,11.7089844 32.4970703,13.75 32.4970703,16.7558594 L32.4970703,28 L28.4892578,28 Z M56.0058594,25.1054688 C58.8447266,25.1054688 60.9970703,23.2128906 60.9970703,20.6894531 L60.9970703,19.1865234 L56.3212891,19.4833984 C53.7236328,19.6318359 52.3505859,20.6337891 52.3505859,22.3222656 C52.3505859,23.9550781 53.7792969,25.1054688 56.0058594,25.1054688 Z M54.8925781,28.2783203 C51.0146484,28.2783203 48.3242188,25.8847656 48.3242188,22.4150391 C48.3242188,19.0009766 50.9404297,16.9970703 55.8017578,16.7001953 L60.9970703,16.4033203 L60.9970703,14.9189453 C60.9970703,12.7109375 59.53125,11.5234375 56.9892578,11.5234375 C54.8925781,11.5234375 53.3525391,12.5996094 53.0371094,14.2695312 L49.2890625,14.2695312 C49.4003906,10.78125 52.6660156,8.23925781 57.1005859,8.23925781 C61.8876953,8.23925781 64.9863281,10.7441406 64.9863281,14.6220703 L64.9863281,28 L61.1455078,28 L61.1455078,24.7900391 L61.0527344,24.7900391 C59.9580078,26.8867188 57.5273438,28.2783203 54.8925781,28.2783203 Z M68.8642578,28 L68.8642578,8.48046875 L72.6865234,8.48046875 L72.6865234,11.8017578 L72.7792969,11.8017578 C73.3916016,9.59375 75.1728516,8.27636719 77.4736328,8.27636719 C78.0488281,8.27636719 78.53125,8.35058594 78.8466797,8.42480469 L78.8466797,12.1728516 C78.53125,12.0429688 77.8261719,11.9316406 77.046875,11.9316406 C74.4677734,11.9316406 72.8720703,13.6757812 72.8720703,16.421875 L72.8720703,28 L68.8642578,28 Z M81.4814453,28 L81.4814453,1.22558594 L85.4892578,1.22558594 L85.4892578,28 L81.4814453,28 Z" id="Gnarl" fill="#6E35E8"></path>
    </g>
</svg>
