<?xml version="1.0" encoding="UTF-8"?>
<svg width="245px" height="30px" viewBox="0 0 245 30" version="1.1" xmlns="http://www.w3.org/2000/svg" xmlns:xlink="http://www.w3.org/1999/xlink">
    <!-- Generator: Sketch 48.2 (47327) - http://www.bohemiancoding.com/sketch -->
    <title>Groundwork</title>
    <desc>Created with Sketch.</desc>
    <defs></defs>
    <g id="Page-1" stroke="none" stroke-width="1" fill="none" fill-rule="evenodd">
        <path d="M40.12,13.964 L52.3,13.964 L52.3,29 L49.318,29 L49.066,24.338 C48.1,26.018 47.47,26.774 46.378,27.614 C44.656,28.916 42.388,29.63 39.91,29.63 C32.35,29.63 27.142,23.666 27.142,15.014 C27.142,6.278 32.518,0.356 40.414,0.356 C46.588,0.356 51.04,3.926 51.88,9.554 L47.89,9.554 C47.092,5.942 44.32,3.842 40.33,3.842 C34.828,3.842 31.342,8.042 31.342,14.636 C31.342,21.524 34.996,26.102 40.54,26.102 C43.522,26.102 46.126,24.548 47.302,22.112 C48.016,20.726 48.268,19.466 48.394,17.24 L40.12,17.24 L40.12,13.964 Z M57.386,8.714 L61.082,8.714 L61.082,11.906 C61.88,10.73 62.216,10.268 62.762,9.764 C63.686,8.798 65.156,8.168 66.374,8.168 C67.13,8.168 67.844,8.336 68.516,8.672 L68.516,12.158 C67.718,11.99 67.298,11.948 66.752,11.948 C63.644,11.948 61.25,14.72 61.25,18.332 L61.25,29 L57.386,29 L57.386,8.714 Z M79.86,8.168 C85.782,8.168 89.646,12.452 89.646,19.004 C89.646,25.22 85.656,29.546 79.86,29.546 C74.064,29.546 70.116,25.22 70.116,18.836 C70.116,12.494 74.064,8.168 79.86,8.168 Z M79.86,11.402 C76.164,11.402 74.022,14.132 74.022,18.836 C74.022,23.582 76.164,26.312 79.902,26.312 C83.556,26.312 85.74,23.582 85.74,18.962 C85.74,14.09 83.64,11.402 79.86,11.402 Z M110.692,29 L106.996,29 L106.996,26.69 C104.98,28.832 103.342,29.546 100.57,29.546 C98.176,29.546 96.202,28.748 95.068,27.32 C94.102,26.06 93.724,24.632 93.724,22.28 L93.724,8.714 L97.588,8.714 L97.588,21.986 C97.588,24.758 98.848,26.102 101.494,26.102 C104.812,26.102 106.828,24.17 106.828,21.02 L106.828,8.714 L110.692,8.714 L110.692,29 Z M115.862,8.714 L119.558,8.714 L119.558,11.024 C121.574,8.882 123.212,8.168 125.984,8.168 C128.378,8.168 130.352,8.966 131.486,10.394 C132.452,11.654 132.83,13.082 132.83,15.434 L132.83,29 L128.966,29 L128.966,15.728 C128.966,12.956 127.706,11.612 125.06,11.612 C121.742,11.612 119.726,13.544 119.726,16.694 L119.726,29 L115.862,29 L115.862,8.714 Z M156.06,0.986 L156.06,29 L152.196,29 L152.196,26.816 C150.264,28.748 148.332,29.546 145.77,29.546 C140.352,29.546 136.95,25.346 136.95,18.752 C136.95,12.284 140.394,8.168 145.77,8.168 C148.374,8.168 150.306,9.008 152.196,10.898 L152.196,0.986 L156.06,0.986 Z M146.61,11.402 C142.956,11.402 140.856,14.09 140.856,18.836 C140.856,23.624 142.956,26.312 146.61,26.312 C150.306,26.312 152.406,23.624 152.406,18.962 C152.406,14.09 150.348,11.402 146.61,11.402 Z M168.958,29 L164.842,29 L158.71,8.714 L162.7,8.714 L165.682,19.256 C165.766,19.676 165.85,19.886 166.438,22.406 C166.522,22.826 166.564,23.12 166.9,24.842 C167.11,24.002 167.278,23.204 167.446,22.364 C167.572,21.692 167.74,20.978 167.782,20.936 L168.202,19.298 L170.932,8.714 L174.586,8.714 L177.4,19.172 C177.778,20.768 178.282,23.162 178.576,24.842 C179.206,21.902 179.5,20.6 179.878,19.214 L182.692,8.714 L186.724,8.714 L180.55,29 L176.644,29 L174.082,19.55 C173.452,17.156 173.158,15.896 172.78,14.3 L171.478,19.55 L168.958,29 Z M197.816,8.168 C203.738,8.168 207.602,12.452 207.602,19.004 C207.602,25.22 203.612,29.546 197.816,29.546 C192.02,29.546 188.072,25.22 188.072,18.836 C188.072,12.494 192.02,8.168 197.816,8.168 Z M197.816,11.402 C194.12,11.402 191.978,14.132 191.978,18.836 C191.978,23.582 194.12,26.312 197.858,26.312 C201.512,26.312 203.696,23.582 203.696,18.962 C203.696,14.09 201.596,11.402 197.816,11.402 Z M211.68,8.714 L215.376,8.714 L215.376,11.906 C216.174,10.73 216.51,10.268 217.056,9.764 C217.98,8.798 219.45,8.168 220.668,8.168 C221.424,8.168 222.138,8.336 222.81,8.672 L222.81,12.158 C222.012,11.99 221.592,11.948 221.046,11.948 C217.938,11.948 215.544,14.72 215.544,18.332 L215.544,29 L211.68,29 L211.68,8.714 Z M235.288,15.938 L244.276,29 L239.572,29 L232.558,18.374 L229.66,20.936 L229.66,29 L225.796,29 L225.796,0.986 L229.66,0.986 L229.66,16.358 L238.354,8.714 L243.478,8.714 L235.288,15.938 Z M0.100000001,25 L24.9,25 C24.9552285,25 25,25.0447715 25,25.1 L25,28.9 C25,28.9552285 24.9552285,29 24.9,29 L0.100000001,29 C0.0447715257,29 2.06413254e-17,28.9552285 1.38777878e-17,28.9 L0,25.1 C-6.76353761e-18,25.0447715 0.0447715257,25 0.100000001,25 Z" id="Groundwork" fill="#6E35E8"></path>
    </g>
</svg>