<?xml version="1.0" encoding="UTF-8" standalone="no"?>
<svg width="306px" height="35px" viewBox="0 0 306 35" version="1.1" xmlns="http://www.w3.org/2000/svg" xmlns:xlink="http://www.w3.org/1999/xlink">
    <!-- Generator: Sketch 3.7.1 (28215) - http://www.bohemiancoding.com/sketch -->
    <title>Group</title>
    <desc>Created with Sketch.</desc>
    <defs></defs>
    <g id="Page-1" stroke="none" stroke-width="1" fill="none" fill-rule="evenodd">
        <g id="Group" fill="#41D180">
            <path d="M66.1983863,21.4459742 L66.1983863,26.1038283 C64.2465236,27.96697 61.5405322,28.9872618 59.0119828,28.9872618 C53.1120343,28.9872618 49.2526695,24.6842918 49.2526695,18.4738197 C49.2526695,12.5738712 53.3781974,7.96037768 59.0119828,7.96037768 C62.560824,7.96037768 65.488618,9.82351931 67.6622833,12.3520687 L72.0539742,8.53706438 C68.6382146,4.58897854 64.2465236,2.4153133 59.0119828,2.4153133 C49.8737167,2.4153133 42.4655107,9.37991416 42.4655107,18.4738197 C42.4655107,28.0113305 49.6075536,34.5323262 59.0119828,34.5323262 C64.3796052,34.5323262 69.3036223,32.536103 72.5419399,28.1887725 L72.5419399,16.0783519 L58.7458197,16.0783519 L58.7458197,21.4459742 L66.1983863,21.4459742 Z M83.9869528,10.6663691 L78.5306094,10.6663691 L78.5306094,34 L84.8298026,34 L84.8298026,18.2076567 C85.7613734,16.6550386 87.4027124,15.6347468 89.2214936,15.6347468 C90.0199828,15.6347468 90.7741116,15.8121888 91.4395193,16.167073 L92.9477768,10.6663691 C92.104927,10.3558455 91.0846352,10.1340429 89.9312618,10.1340429 C87.624515,10.1340429 85.8057339,11.5979399 84.4749185,13.7716052 L83.9869528,10.6663691 Z M105.767966,10.1340429 C98.6259227,10.1340429 93.5244635,15.4573047 93.5244635,22.3331845 C93.5244635,29.2090644 98.6259227,34.5323262 105.767966,34.5323262 C112.865648,34.5323262 117.967107,29.2090644 117.967107,22.3331845 C117.967107,15.4573047 112.865648,10.1340429 105.767966,10.1340429 L105.767966,10.1340429 Z M111.534833,22.3331845 C111.534833,26.1481888 109.228086,29.1203433 105.767966,29.1203433 C102.307845,29.1203433 99.9567382,26.1481888 99.9567382,22.3331845 C99.9567382,18.5181803 102.307845,15.5460258 105.767966,15.5460258 C109.228086,15.5460258 111.534833,18.5181803 111.534833,22.3331845 L111.534833,22.3331845 Z M143.784927,34 L143.784927,10.6663691 L137.485734,10.6663691 L137.485734,26.1481888 C136.332361,28.055691 134.291777,29.1203433 132.428635,29.1203433 C131.053459,29.1203433 129.900086,28.6323777 129.323399,27.4790043 C128.657991,26.1481888 128.613631,24.1963262 128.613631,22.4662661 L128.613631,10.6663691 L122.314438,10.6663691 L122.314438,22.7767897 C122.314438,26.1038283 122.580601,29.1203433 124.399382,31.4714506 C125.863279,33.3345923 128.081305,34.5323262 130.609854,34.5323262 C133.182764,34.5323262 135.977476,33.4233133 137.840618,30.8060429 L138.328584,34 L143.784927,34 Z M149.906678,10.6663691 L149.906678,34 L156.205871,34 L156.205871,18.5181803 C157.359245,16.6106781 159.399828,15.5460258 161.26297,15.5460258 C162.638146,15.5460258 163.791519,16.0339914 164.368206,17.1873648 C165.033614,18.5181803 165.077974,20.4700429 165.077974,22.200103 L165.077974,34 L171.377167,34 L171.377167,21.8895794 C171.377167,18.5625408 171.111004,15.5460258 169.292223,13.1949185 C167.828326,11.3317768 165.6103,10.1340429 163.081751,10.1340429 C160.508841,10.1340429 157.714129,11.2430558 155.850987,13.8603262 L155.363021,10.6663691 L149.906678,10.6663691 Z M199.767897,34 L199.767897,0.729613734 L193.468704,0.729613734 L193.468704,12.9287554 C191.694283,10.9325322 188.899571,10.1340429 186.681545,10.1340429 C180.337991,10.1340429 175.724498,15.6791073 175.724498,22.2444635 C175.724498,29.0316223 180.426712,34.5323262 186.592824,34.5323262 C188.988292,34.5323262 192.137888,33.6894764 193.779227,31.1165665 L194.311554,34 L199.767897,34 Z M193.468704,26.0594678 C192.093528,28.3662146 189.964223,29.1203433 187.968,29.1203433 C184.374798,29.1203433 182.156773,25.8376652 182.156773,22.4219056 C182.156773,19.1392275 184.019914,15.5460258 188.056721,15.5460258 C190.008584,15.5460258 191.871725,16.2114335 193.468704,18.0745751 L193.468704,26.0594678 Z M222.879725,10.6663691 L217.334661,10.6663691 L213.297854,25.127897 L213.209133,25.127897 L209.749013,10.6663691 L203.050575,10.6663691 L209.438489,34 L216.225648,34 L219.951931,20.647485 L220.040652,20.647485 L223.722575,34 L230.376652,34 L237.07509,10.6663691 L230.509734,10.6663691 L226.827811,25.0835365 L226.69473,25.0835365 L222.879725,10.6663691 Z M250.782489,10.1340429 C243.640446,10.1340429 238.538987,15.4573047 238.538987,22.3331845 C238.538987,29.2090644 243.640446,34.5323262 250.782489,34.5323262 C257.880172,34.5323262 262.981631,29.2090644 262.981631,22.3331845 C262.981631,15.4573047 257.880172,10.1340429 250.782489,10.1340429 L250.782489,10.1340429 Z M256.549356,22.3331845 C256.549356,26.1481888 254.242609,29.1203433 250.782489,29.1203433 C247.322369,29.1203433 244.971262,26.1481888 244.971262,22.3331845 C244.971262,18.5181803 247.322369,15.5460258 250.782489,15.5460258 C254.242609,15.5460258 256.549356,18.5181803 256.549356,22.3331845 L256.549356,22.3331845 Z M272.962747,10.6663691 L267.506403,10.6663691 L267.506403,34 L273.805597,34 L273.805597,18.2076567 C274.737167,16.6550386 276.378506,15.6347468 278.197288,15.6347468 C278.995777,15.6347468 279.749906,15.8121888 280.415313,16.167073 L281.923571,10.6663691 C281.080721,10.3558455 280.060429,10.1340429 278.907056,10.1340429 C276.600309,10.1340429 274.781528,11.5979399 273.450712,13.7716052 L272.962747,10.6663691 Z M305.745167,34 L296.873064,20.4256824 L305.212841,10.6663691 L298.026438,10.6663691 L290.48515,20.1595193 L290.396429,20.1595193 L290.396429,0.729613734 L284.097236,0.729613734 L284.097236,34 L290.396429,34 L290.396429,27.96697 L292.658815,25.3496996 L298.026438,34 L305.745167,34 Z" id="Groundwork"></path>
            <rect id="Rectangle-1" x="0" y="28" width="35" height="6"></rect>
        </g>
    </g>
</svg>